<svg width="16" height="16" viewBox="0 0 16 16" fill="none" xmlns="http://www.w3.org/2000/svg">
<g clip-path="url(#clip0_3_336)">
<path d="M14.3332 2.66666H12.8888V3.55555H14.2221V13.3333H1.77767V3.55555H3.11101V2.66666H1.66656C1.56267 2.66839 1.46013 2.69058 1.36482 2.73195C1.2695 2.77332 1.18326 2.83306 1.11104 2.90776C1.03881 2.98247 0.982007 3.07067 0.943873 3.16732C0.905739 3.26398 0.88702 3.36721 0.888786 3.4711V13.4178C0.88702 13.5217 0.905739 13.6249 0.943873 13.7215C0.982007 13.8182 1.03881 13.9064 1.11104 13.9811C1.18326 14.0558 1.2695 14.1155 1.36482 14.1569C1.46013 14.1983 1.56267 14.2205 1.66656 14.2222H14.3332C14.4371 14.2205 14.5397 14.1983 14.635 14.1569C14.7303 14.1155 14.8165 14.0558 14.8888 13.9811C14.961 13.9064 15.0178 13.8182 15.0559 13.7215C15.0941 13.6249 15.1128 13.5217 15.111 13.4178V3.4711C15.1128 3.36721 15.0941 3.26398 15.0559 3.16732C15.0178 3.07067 14.961 2.98247 14.8888 2.90776C14.8165 2.83306 14.7303 2.77332 14.635 2.73195C14.5397 2.69058 14.4371 2.66839 14.3332 2.66666Z" fill="#F56F2C"/>
<path d="M3.55566 6.22223H4.44455V7.11112H3.55566V6.22223Z" fill="#F56F2C"/>
<path d="M6.22217 6.22223H7.11106V7.11112H6.22217V6.22223Z" fill="#F56F2C"/>
<path d="M8.88892 6.22223H9.7778V7.11112H8.88892V6.22223Z" fill="#F56F2C"/>
<path d="M11.5557 6.22223H12.4446V7.11112H11.5557V6.22223Z" fill="#F56F2C"/>
<path d="M3.55566 8.44446H4.44455V9.33335H3.55566V8.44446Z" fill="#F56F2C"/>
<path d="M6.22217 8.44446H7.11106V9.33335H6.22217V8.44446Z" fill="#F56F2C"/>
<path d="M8.88892 8.44446H9.7778V9.33335H8.88892V8.44446Z" fill="#F56F2C"/>
<path d="M11.5557 8.44446H12.4446V9.33335H11.5557V8.44446Z" fill="#F56F2C"/>
<path d="M3.55566 10.6667H4.44455V11.5555H3.55566V10.6667Z" fill="#F56F2C"/>
<path d="M6.22217 10.6667H7.11106V11.5555H6.22217V10.6667Z" fill="#F56F2C"/>
<path d="M8.88892 10.6667H9.7778V11.5555H8.88892V10.6667Z" fill="#F56F2C"/>
<path d="M11.5557 10.6667H12.4446V11.5555H11.5557V10.6667Z" fill="#F56F2C"/>
<path d="M4.44444 4.44444C4.56232 4.44444 4.67536 4.39762 4.75871 4.31427C4.84206 4.23092 4.88889 4.11787 4.88889 4V1.33333C4.88889 1.21546 4.84206 1.10241 4.75871 1.01906C4.67536 0.935711 4.56232 0.888885 4.44444 0.888885C4.32657 0.888885 4.21352 0.935711 4.13017 1.01906C4.04683 1.10241 4 1.21546 4 1.33333V4C4 4.11787 4.04683 4.23092 4.13017 4.31427C4.21352 4.39762 4.32657 4.44444 4.44444 4.44444Z" fill="#F56F2C"/>
<path d="M11.5555 4.44444C11.6734 4.44444 11.7864 4.39762 11.8698 4.31427C11.9531 4.23092 12 4.11787 12 4V1.33333C12 1.21546 11.9531 1.10241 11.8698 1.01906C11.7864 0.935711 11.6734 0.888885 11.5555 0.888885C11.4377 0.888885 11.3246 0.935711 11.2413 1.01906C11.1579 1.10241 11.1111 1.21546 11.1111 1.33333V4C11.1111 4.11787 11.1579 4.23092 11.2413 4.31427C11.3246 4.39762 11.4377 4.44444 11.5555 4.44444Z" fill="#F56F2C"/>
<path d="M5.77783 2.66666H10.2223V3.55555H5.77783V2.66666Z" fill="#F56F2C"/>
</g>
<defs>
<clipPath id="clip0_3_336">
<rect width="16" height="16" fill="white"/>
</clipPath>
</defs>
</svg>
