<svg width="9" height="12" viewBox="0 0 9 12" fill="none" xmlns="http://www.w3.org/2000/svg">
<path d="M4.5 12C4.5 12 0 6.522 0 4.2C-8.80582e-09 3.64845 0.116396 3.1023 0.342542 2.59273C0.568688 2.08316 0.900156 1.62016 1.31802 1.23015C1.73588 0.840145 2.23196 0.530776 2.77792 0.319706C3.32389 0.108636 3.90905 0 4.5 0C5.09095 0 5.67611 0.108636 6.22208 0.319706C6.76804 0.530776 7.26412 0.840145 7.68198 1.23015C8.09984 1.62016 8.43131 2.08316 8.65746 2.59273C8.8836 3.1023 9 3.64845 9 4.2C9 6.522 4.5 12 4.5 12ZM4.5 5.4C4.84099 5.4 5.16802 5.27357 5.40914 5.04853C5.65026 4.82348 5.78571 4.51826 5.78571 4.2C5.78571 3.88174 5.65026 3.57652 5.40914 3.35147C5.16802 3.12643 4.84099 3 4.5 3C4.15901 3 3.83198 3.12643 3.59086 3.35147C3.34974 3.57652 3.21429 3.88174 3.21429 4.2C3.21429 4.51826 3.34974 4.82348 3.59086 5.04853C3.83198 5.27357 4.15901 5.4 4.5 5.4Z" fill="#F56F2C"/>
</svg>
