<svg width="33" height="28" viewBox="0 0 33 28" fill="none" xmlns="http://www.w3.org/2000/svg">
<path d="M21.4807 19.4595L16.0211 14.0729L10.5615 19.4595" stroke="#F06314" stroke-width="2" stroke-linecap="round" stroke-linejoin="round"/>
<path d="M16.0212 14.0729V26.1928" stroke="#F06314" stroke-width="2" stroke-linecap="round" stroke-linejoin="round"/>
<path d="M27.4727 22.6781C28.8039 21.962 29.8556 20.829 30.4616 19.4577C31.0677 18.0865 31.1937 16.5551 30.8197 15.1054C30.4457 13.6557 29.593 12.3701 28.3963 11.4516C27.1995 10.5331 25.7268 10.0339 24.2106 10.033H22.4908C22.0777 8.45634 21.3077 6.99265 20.2386 5.75191C19.1696 4.51118 17.8295 3.52569 16.3189 2.86954C14.8083 2.21339 13.1666 1.90365 11.5172 1.9636C9.86777 2.02356 8.25362 2.45166 6.79606 3.21571C5.3385 3.97976 4.07545 5.05987 3.10188 6.37486C2.12831 7.68985 1.46955 9.20548 1.17513 10.8078C0.880709 12.4102 0.958284 14.0575 1.40202 15.626C1.84576 17.1945 2.64412 18.6433 3.73708 19.8636" stroke="#F06314" stroke-width="2" stroke-linecap="round" stroke-linejoin="round"/>
<path d="M21.4807 19.4595L16.0211 14.0729L10.5615 19.4595" stroke="#F06314" stroke-width="2" stroke-linecap="round" stroke-linejoin="round"/>
</svg>
